[center][b][SIZE=16pt][color=blue]Boris - Il Film[/color][/SIZE][/b]

[img]http://filmup.leonardo.it/posters/loc/500/borisilfilm.jpg[/img]

[b][color=green]~~Scheda~~[/color][/b]

« Dopo Lo squalo un altro gigante del cinema. »
	
(Tagline del film)

Boris - Il film è un film del 2011, diretto e co-sceneggiato da Giacomo Ciarrapico, Mattia Torre e Luca Vendruscolo. È tratto dalla serie televisiva Boris, ed interpretato dallo stesso cast.

Titolo originale:  	Boris il film
Nazione:  	Italia
Anno:  	2011
Genere:  	Commedia
Durata:  	108'
Regia:  	Giacomo Ciarrapico, Mattia Torre, Luca Vendruscolo
Sito ufficiale:  	borisilfilm.libero.it
ocial network:  	facebook

Cast:  	Luca Amorosino, Valerio Aprea, Ninni Bruschetta, Paolo Calabresi, Antonio Catania, Carolina Crescentini, Massimo De Lorenzo, Carlo De Ruggeri, Alberto Di Stasio, Roberta Fiorentini, Caterina Guzzanti, Francesco Pannofino, Andrea Sartoretti, Pietro Sermonti, Alessandro Tiberi, Giorgio Tirabassi
Produzione:  	Wildside
Distribuzione:  	01 Distribution
Data di uscita:  	01 Aprile 2011 (cinema)



[hr]
[b][color=green]~~Trama~~[/color][/b]

[spoiler=Trama]
Il regista René Ferretti molla la brutta fiction tv che ha fatto per anni e tenta il grande salto: un film d'autore, per il cinema. Insomma, la libertà artistica dopo una carriera asservita al conservatorismo televisivo. Ma il mondo del cinema con i suoi snobismi può essere perfino peggio di quello della tv. Soprattutto per una troupe, quella di Ferretti, a dir poco estranea all'Arte con la "a" maiuscola. Tra cinematografari snob, attrici nevrotiche, sceneggiatori modaioli, eroinomani, squali e improvvisati vari, il film mette a nudo un mondo, quello del cinema italiano, che aspira a una nuova giovinezza e vive invece solo una perenne immaturità. 
[/spoiler]
[hr]
[b][color=green]~~Trailer~~[/color][/b]	
[youtube]_x7ERlewURQ[/youtube]
[hr]

[hr]

[b][color=green]~~Scheda tecnica del Rip~~[/color][/b]
[code]

G:\VIDEO_TS\VTS_01_1.VOB
   General
      Complete name : G:\VIDEO_TS\VTS_01_1.VOB
      Format : MPEG-PS
      File size : 1 024 MiB
      Duration : 28mn 1s
      Overall bit rate : 5 110 Kbps
   Video #224
      ID : 224 (0xE0)
      Format : MPEG Video
      Format version : Version 2
      Format profile : Main@Main
      Format settings, Matrix : Default
      Duration : 28mn 1s
      Bit rate mode : Variable
      Bit rate : 4 459 Kbps
      Nominal bit rate : 7 000 Kbps
      Width : 720 pixels
      Height : 576 pixels
      Display aspect ratio : 16:9
      Frame rate : 25.000 fps
      Standard : PAL
      Colorimetry : 4:2:0
      Scan type : Interlaced
      Scan order : Top Field First
      Bits/(Pixel*Frame) : 0.430
      Stream size : 894 MiB (87%)
   Audio #128
      ID : 128 (0x80)
      Format : AC-3
      Format/Info : Audio Coding 3
      Duration : 28mn 0s
      Bit rate mode : Constant
      Bit rate : 448 Kbps
      Channel(s) : 6 channels
      Channel positions : Front: L C R, Surround: L R, LFE
      Sampling rate : 48.0 KHz
      Video delay : -80ms
      Stream size : 89.8 MiB (9%)
   Text #32
      ID : 32 (0x20)
      Format : RLE
      Format/Info : Run-length encoding
[/code]
[hr]
[b][color=green]~~Note~~[/color][/b]

Banda max 200 kbytes 24/24 7/7 :D

[hr]

Visita il nostro sito http://www.nautilus-bt.org ( Visit our site http://www.nautilus-bt.org )

[/center]